<?xml version="1.0" ?><svg data-name="Layer 1" id="Layer_1" viewBox="0 0 128 128" xmlns="http://www.w3.org/2000/svg"><title/><polyline points="66.98 36.74 66.98 111.62 66.98 114.7" style="fill:none;stroke:#000;stroke-linecap:round;stroke-linejoin:round;stroke-width:2px"/><line style="fill:none;stroke:#000;stroke-linecap:round;stroke-linejoin:round;stroke-width:2px" x1="61.02" x2="61.02" y1="114.7" y2="36.74"/><path d="M67.07,72.68c8,.26,14.26,1.42,14.26,2.82,0,1.59-7.76,2.87-17.33,2.87S46.67,77.09,46.67,75.5c0-1.43,6.25-2.61,14.44-2.84" style="fill:none;stroke:#000;stroke-linecap:round;stroke-linejoin:round;stroke-width:2px"/><path d="M78.46,113.34c0,1.8-6.47,3.26-14.46,3.26s-14.46-1.46-14.46-3.26" style="fill:none;stroke:#000;stroke-linecap:round;stroke-linejoin:round;stroke-width:2px"/><path d="M67,107.9c10.91.52,19.69,3.49,19.69,7,0,3.92-10.15,7.09-22.67,7.09s-22.67-3.17-22.67-7.09c0-3.59,8.58-6.57,19.69-7" style="fill:none;stroke:#000;stroke-linecap:round;stroke-linejoin:round;stroke-width:2px"/><path d="M80.36,20.46c0,2.15-7.32-1.67-16.36-1.67s-16.36,3.82-16.36,1.67S55,11.89,64,11.89,80.36,18.32,80.36,20.46Z" style="fill:none;stroke:#000;stroke-linecap:round;stroke-linejoin:round;stroke-width:2px"/><ellipse cx="64" cy="21.36" rx="24.5" ry="15.39" style="fill:none;stroke:#000;stroke-linecap:round;stroke-linejoin:round;stroke-width:2px"/><path d="M48,25.62l1,1.05a7.15,7.15,0,0,0,5.05,2.09H74.21a7.15,7.15,0,0,0,5.05-2.09l.78-.78" style="fill:none;stroke:#000;stroke-linecap:round;stroke-linejoin:round;stroke-width:2px"/></svg>