<?xml version="1.0" ?><svg data-name="Layer 1" id="Layer_1" viewBox="0 0 128 128" xmlns="http://www.w3.org/2000/svg"><title/><rect height="82.1" style="fill:none;stroke:#000;stroke-linecap:round;stroke-linejoin:round;stroke-width:2px" width="65.85" x="31.06" y="22.93"/><rect height="64.38" style="fill:none;stroke:#000;stroke-linecap:round;stroke-linejoin:round;stroke-width:2px" width="50.49" x="38.74" y="31.8"/><path d="M110.27,106.3c-1.77-1.39-4.17.37-4.17,2.52a3.47,3.47,0,0,0,3.54,3.55,4.09,4.09,0,0,0,4.3-3c.66-1.79,1-4.29-.57-9.39-1.29-4.27-3.91-7.37-.38-17.34,3-8.54,2.4-13.59-.63-15.76a5.81,5.81,0,0,0-4.23-.86,3.74,3.74,0,0,0-3.29,3.81A3,3,0,0,0,107.61,73c1.15,0,2.84-.65,2.47-2.55" style="fill:none;stroke:#000;stroke-linecap:round;stroke-linejoin:round;stroke-width:2px"/><path d="M110.27,21.67c-1.77,1.39-4.17-.37-4.17-2.52a3.47,3.47,0,0,1,3.54-3.55,4.09,4.09,0,0,1,4.3,3c.66,1.79,1,4.29-.57,9.39-1.29,4.27-3.91,7.37-.38,17.34,3,8.54,2.4,13.59-.63,15.76a5.81,5.81,0,0,1-4.23.86,3.74,3.74,0,0,1-3.29-3.81A3,3,0,0,1,107.61,55c1.15,0,2.84.65,2.47,2.55" style="fill:none;stroke:#000;stroke-linecap:round;stroke-linejoin:round;stroke-width:2px"/><path d="M17.7,21.67c1.77,1.39,4.17-.37,4.17-2.52a3.47,3.47,0,0,0-3.54-3.55,4.08,4.08,0,0,0-4.3,3c-.67,1.79-1,4.29.57,9.39,1.29,4.27,3.91,7.37.37,17.34-3,8.54-2.39,13.59.64,15.76a5.78,5.78,0,0,0,4.22.86,3.75,3.75,0,0,0,3.3-3.81A3,3,0,0,0,20.35,55c-1.15,0-2.84.65-2.46,2.55" style="fill:none;stroke:#000;stroke-linecap:round;stroke-linejoin:round;stroke-width:2px"/><path d="M17.7,106.3c1.77-1.39,4.17.37,4.17,2.52a3.47,3.47,0,0,1-3.54,3.55,4.08,4.08,0,0,1-4.3-3c-.67-1.79-1-4.29.57-9.39,1.29-4.27,3.91-7.37.37-17.34-3-8.54-2.39-13.59.64-15.76A5.78,5.78,0,0,1,19.83,66a3.75,3.75,0,0,1,3.3,3.81A3,3,0,0,1,20.35,73c-1.15,0-2.84-.65-2.46-2.55" style="fill:none;stroke:#000;stroke-linecap:round;stroke-linejoin:round;stroke-width:2px"/><path d="M100.67,117.49a2.65,2.65,0,0,1,2.52-3.77,3.35,3.35,0,0,1,3.41,3.42,4,4,0,0,1-2.62,4.29c-1.57.67-3.76,1-8.21-.56-3.73-1.3-6.44-3.92-15.15-.38-7.45,3-11.86,2.4-13.75-.63a6.46,6.46,0,0,1-.76-4.23,3.69,3.69,0,0,1,3.65-3.26,2.79,2.79,0,0,1,2.78,2.78,2,2,0,0,1-2,2.21" style="fill:none;stroke:#000;stroke-linecap:round;stroke-linejoin:round;stroke-width:2px"/><path d="M27.3,117.49a2.65,2.65,0,0,0-2.53-3.77,3.36,3.36,0,0,0-3.41,3.42A4,4,0,0,0,24,121.43c1.57.67,3.75,1,8.2-.56,3.74-1.3,6.44-3.92,15.15-.38,7.46,3,11.87,2.4,13.76-.63a6.46,6.46,0,0,0,.76-4.23,3.69,3.69,0,0,0-3.65-3.26,2.78,2.78,0,0,0-2.78,2.78,2,2,0,0,0,2,2.21" style="fill:none;stroke:#000;stroke-linecap:round;stroke-linejoin:round;stroke-width:2px"/><path d="M27.3,10.48a2.65,2.65,0,0,1-2.53,3.77,3.36,3.36,0,0,1-3.41-3.42A4,4,0,0,1,24,6.54c1.57-.67,3.75-1,8.2.56,3.74,1.3,6.44,3.92,15.15.38,7.46-3,11.87-2.4,13.76.63a6.46,6.46,0,0,1,.76,4.23,3.68,3.68,0,0,1-3.65,3.25,2.77,2.77,0,0,1-2.78-2.77,2,2,0,0,1,2-2.21" style="fill:none;stroke:#000;stroke-linecap:round;stroke-linejoin:round;stroke-width:2px"/><path d="M100.67,10.48a2.65,2.65,0,0,0,2.52,3.77,3.35,3.35,0,0,0,3.41-3.42A4,4,0,0,0,104,6.54c-1.57-.67-3.76-1-8.21.56C92,8.4,89.33,11,80.62,7.48c-7.45-3-11.86-2.4-13.75.63a6.46,6.46,0,0,0-.76,4.23,3.68,3.68,0,0,0,3.65,3.25,2.78,2.78,0,0,0,2.78-2.77,2,2,0,0,0-2-2.21" style="fill:none;stroke:#000;stroke-linecap:round;stroke-linejoin:round;stroke-width:2px"/><path d="M112,66.64A5.28,5.28,0,0,0,116.6,64,5.3,5.3,0,0,0,112,61.33" style="fill:none;stroke:#000;stroke-linecap:round;stroke-linejoin:round;stroke-width:2px"/><path d="M67.28,7.53A5.22,5.22,0,0,0,64,3a5.21,5.21,0,0,0-3.29,4.57" style="fill:none;stroke:#000;stroke-linecap:round;stroke-linejoin:round;stroke-width:2px"/><path d="M60.69,120.47A5.21,5.21,0,0,0,64,125a5.22,5.22,0,0,0,3.3-4.57" style="fill:none;stroke:#000;stroke-linecap:round;stroke-linejoin:round;stroke-width:2px"/><path d="M16.63,112.18a5.2,5.2,0,0,0-.9,5.56,5.22,5.22,0,0,0,5.56-.9" style="fill:none;stroke:#000;stroke-linecap:round;stroke-linejoin:round;stroke-width:2px"/><path d="M111.24,112.18a5.22,5.22,0,0,1,.9,5.56,5.22,5.22,0,0,1-5.56-.9" style="fill:none;stroke:#000;stroke-linecap:round;stroke-linejoin:round;stroke-width:2px"/><path d="M111.24,15.81a5.22,5.22,0,0,0,.9-5.56,5.22,5.22,0,0,0-5.56.9" style="fill:none;stroke:#000;stroke-linecap:round;stroke-linejoin:round;stroke-width:2px"/><path d="M16.63,15.81a5.2,5.2,0,0,1-.9-5.56,5.22,5.22,0,0,1,5.56.9" style="fill:none;stroke:#000;stroke-linecap:round;stroke-linejoin:round;stroke-width:2px"/><path d="M16,61.33A5.3,5.3,0,0,0,11.4,64,5.28,5.28,0,0,0,16,66.64" style="fill:none;stroke:#000;stroke-linecap:round;stroke-linejoin:round;stroke-width:2px"/><circle cx="99.1" cy="20.73" r="2.4" style="fill:none;stroke:#000;stroke-linecap:round;stroke-linejoin:round;stroke-width:2px"/><circle cx="28.87" cy="20.73" r="2.4" style="fill:none;stroke:#000;stroke-linecap:round;stroke-linejoin:round;stroke-width:2px"/><circle cx="99.1" cy="107.24" r="2.4" style="fill:none;stroke:#000;stroke-linecap:round;stroke-linejoin:round;stroke-width:2px"/><circle cx="28.87" cy="107.24" r="2.4" style="fill:none;stroke:#000;stroke-linecap:round;stroke-linejoin:round;stroke-width:2px"/><line style="fill:none;stroke:#000;stroke-linecap:round;stroke-linejoin:round;stroke-width:2px" x1="30.86" x2="97.11" y1="19.34" y2="19.34"/><line style="fill:none;stroke:#000;stroke-linecap:round;stroke-linejoin:round;stroke-width:2px" x1="30.86" x2="97.11" y1="108.63" y2="108.63"/><line style="fill:none;stroke:#000;stroke-linecap:round;stroke-linejoin:round;stroke-width:2px" x1="27.38" x2="27.38" y1="22.77" y2="105.2"/><line style="fill:none;stroke:#000;stroke-linecap:round;stroke-linejoin:round;stroke-width:2px" x1="100.59" x2="100.59" y1="22.77" y2="105.2"/><path d="M48.94,75.94a4.72,4.72,0,0,1,9.26-1.28A2.85,2.85,0,0,1,60,74a2.88,2.88,0,0,1,2.88,2.88h1.36" style="fill:none;stroke:#000;stroke-linecap:round;stroke-linejoin:round;stroke-width:2px"/><path d="M42.29,80.65A2.67,2.67,0,0,1,45,78a2.73,2.73,0,0,1,1.44.42,4.07,4.07,0,0,1,7.66.06,2.67,2.67,0,1,1,1.53,4.87H51.38" style="fill:none;stroke:#000;stroke-linecap:round;stroke-linejoin:round;stroke-width:2px"/><path d="M74.05,45.35a2,2,0,0,1,2-2,2,2,0,0,1,1.1.33,3.1,3.1,0,0,1,5.83,0,2,2,0,1,1,1.17,3.71h-5" style="fill:none;stroke:#000;stroke-linecap:round;stroke-linejoin:round;stroke-width:2px"/><line style="fill:none;stroke:#000;stroke-linecap:round;stroke-linejoin:round;stroke-width:2px" x1="67.06" x2="65.04" y1="67.27" y2="70.11"/><polyline points="88.87 73.48 73.5 51.87 60.53 70.1" style="fill:none;stroke:#000;stroke-linecap:round;stroke-linejoin:round;stroke-width:2px"/><polyline points="69.05 57.87 57.21 41.23 39.26 66.46" style="fill:none;stroke:#000;stroke-linecap:round;stroke-linejoin:round;stroke-width:2px"/><polyline points="50.14 51.28 52.4 53.54 54.29 51.65 57.21 54.56 60.12 51.65 62.02 53.54 64.27 51.28" style="fill:none;stroke:#000;stroke-linecap:round;stroke-linejoin:round;stroke-width:2px"/><polyline points="78.4 59.35 76.09 61.66 74.14 59.72 71.16 62.71 68.17 59.72" style="fill:none;stroke:#000;stroke-linecap:round;stroke-linejoin:round;stroke-width:2px"/><path d="M76,90.81h4a1.93,1.93,0,0,0,1.82-2h0a1.93,1.93,0,0,0-1.82-2H65.67a1.93,1.93,0,0,1-1.82-2h0a1.93,1.93,0,0,1,1.82-2H88.2" style="fill:none;stroke:#000;stroke-linecap:round;stroke-linejoin:round;stroke-width:2px"/></svg>