<?xml version="1.0" ?><svg data-name="Layer 1" id="Layer_1" viewBox="0 0 128 128" xmlns="http://www.w3.org/2000/svg"><title/><line style="fill:none;stroke:#000;stroke-linecap:round;stroke-linejoin:round;stroke-width:2px" x1="65.16" x2="65.16" y1="9.36" y2="79.99"/><path d="M64.72,80h.86a2.33,2.33,0,0,1,2.33,2.33v41.43a0,0,0,0,1,0,0H62.4a0,0,0,0,1,0,0V82.32A2.33,2.33,0,0,1,64.72,80Z" style="fill:none;stroke:#000;stroke-linecap:round;stroke-linejoin:round;stroke-width:2px"/><circle cx="46.94" cy="34.88" r="2.48" style="fill:none;stroke:#000;stroke-linecap:round;stroke-linejoin:round;stroke-width:2px"/><circle cx="83.37" cy="44.82" r="2.48" style="fill:none;stroke:#000;stroke-linecap:round;stroke-linejoin:round;stroke-width:2px"/><path d="M83.37,47.34A18.22,18.22,0,0,1,65.16,65.56" style="fill:none;stroke:#000;stroke-linecap:round;stroke-linejoin:round;stroke-width:2px"/><path d="M65.16,55.62A18.21,18.21,0,0,1,46.94,37.41" style="fill:none;stroke:#000;stroke-linecap:round;stroke-linejoin:round;stroke-width:2px"/><circle cx="83.37" cy="18.33" r="2.48" style="fill:none;stroke:#000;stroke-linecap:round;stroke-linejoin:round;stroke-width:2px"/><circle cx="65.16" cy="6.74" r="2.48" style="fill:none;stroke:#000;stroke-linecap:round;stroke-linejoin:round;stroke-width:2px"/><path d="M83.37,20.85A18.22,18.22,0,0,1,65.16,39.07" style="fill:none;stroke:#000;stroke-linecap:round;stroke-linejoin:round;stroke-width:2px"/><path d="M67.91,101h5s-3.31,18.21,14.9,18.21v4.55H67.91" style="fill:none;stroke:#000;stroke-linecap:round;stroke-linejoin:round;stroke-width:2px"/><path d="M62.4,101h-5s3.31,18.21-14.9,18.21v4.55H62.4" style="fill:none;stroke:#000;stroke-linecap:round;stroke-linejoin:round;stroke-width:2px"/><path d="M45.42,9.72H47A4.31,4.31,0,0,1,51.33,14v4.28a0,0,0,0,1,0,0H41.1a0,0,0,0,1,0,0V14A4.31,4.31,0,0,1,45.42,9.72Z" style="fill:none;stroke:#000;stroke-linecap:round;stroke-linejoin:round;stroke-width:2px" transform="translate(-1.25 22.91) rotate(-27.49)"/><path d="M52,14.06c3-1,5.28-1.23,5.74-.34.69,1.33-2.86,4.54-7.94,7.18s-9.75,3.71-10.44,2.39c-.46-.9,1-2.65,3.57-4.51" style="fill:none;stroke:#000;stroke-linecap:round;stroke-linejoin:round;stroke-width:2px"/><path d="M65.16,29.13a18.18,18.18,0,0,1-15.27-8.28" style="fill:none;stroke:#000;stroke-linecap:round;stroke-linejoin:round;stroke-width:2px"/></svg>