<?xml version="1.0" ?><svg data-name="Layer 1" id="Layer_1" viewBox="0 0 128 128" xmlns="http://www.w3.org/2000/svg"><title/><circle cx="6.7" cy="47.68" r="3.66" style="fill:none;stroke:#000;stroke-linecap:round;stroke-linejoin:round;stroke-width:2px"/><circle cx="121.3" cy="47.68" r="3.66" style="fill:none;stroke:#000;stroke-linecap:round;stroke-linejoin:round;stroke-width:2px"/><line style="fill:none;stroke:#000;stroke-linecap:round;stroke-linejoin:round;stroke-width:2px" x1="6.7" x2="6.7" y1="52.16" y2="123.47"/><line style="fill:none;stroke:#000;stroke-linecap:round;stroke-linejoin:round;stroke-width:2px" x1="6.7" x2="121.3" y1="58.25" y2="58.25"/><line style="fill:none;stroke:#000;stroke-linecap:round;stroke-linejoin:round;stroke-width:2px" x1="6.7" x2="121.3" y1="65.33" y2="65.33"/><line style="fill:none;stroke:#000;stroke-linecap:round;stroke-linejoin:round;stroke-width:2px" x1="121.3" x2="121.3" y1="52.16" y2="123.47"/><path d="M121.3,93.1H106.16a2.54,2.54,0,0,0-2.54,2.54v1.22a2.55,2.55,0,0,1-2.54,2.54H26.92a2.55,2.55,0,0,1-2.54-2.54V95.64a2.54,2.54,0,0,0-2.54-2.54H6.7" style="fill:none;stroke:#000;stroke-linecap:round;stroke-linejoin:round;stroke-width:2px"/><path d="M121.3,115.75h-3.87a2.54,2.54,0,0,1-2.53-2.54V112a2.55,2.55,0,0,0-2.54-2.54H15.64A2.55,2.55,0,0,0,13.1,112v1.22a2.54,2.54,0,0,1-2.53,2.54H6.7" style="fill:none;stroke:#000;stroke-linecap:round;stroke-linejoin:round;stroke-width:2px"/><line style="fill:none;stroke:#000;stroke-linecap:round;stroke-linejoin:round;stroke-width:2px" x1="18.16" x2="18.16" y1="58.25" y2="93.1"/><line style="fill:none;stroke:#000;stroke-linecap:round;stroke-linejoin:round;stroke-width:2px" x1="29.62" x2="29.62" y1="58.25" y2="99.4"/><line style="fill:none;stroke:#000;stroke-linecap:round;stroke-linejoin:round;stroke-width:2px" x1="41.08" x2="41.08" y1="58.25" y2="99.4"/><line style="fill:none;stroke:#000;stroke-linecap:round;stroke-linejoin:round;stroke-width:2px" x1="52.54" x2="52.54" y1="58.25" y2="99.4"/><line style="fill:none;stroke:#000;stroke-linecap:round;stroke-linejoin:round;stroke-width:2px" x1="64" x2="64" y1="58.25" y2="99.4"/><line style="fill:none;stroke:#000;stroke-linecap:round;stroke-linejoin:round;stroke-width:2px" x1="75.46" x2="75.46" y1="58.25" y2="99.4"/><line style="fill:none;stroke:#000;stroke-linecap:round;stroke-linejoin:round;stroke-width:2px" x1="86.92" x2="86.92" y1="58.25" y2="99.4"/><line style="fill:none;stroke:#000;stroke-linecap:round;stroke-linejoin:round;stroke-width:2px" x1="98.38" x2="98.38" y1="58.25" y2="99.4"/><line style="fill:none;stroke:#000;stroke-linecap:round;stroke-linejoin:round;stroke-width:2px" x1="109.84" x2="109.84" y1="58.25" y2="93.1"/><polygon points="48.47 27.69 50.01 30.8 53.44 31.3 50.95 33.72 51.54 37.13 48.47 35.52 45.4 37.13 45.99 33.72 43.51 31.3 46.94 30.8 48.47 27.69" style="fill:none;stroke:#000;stroke-linecap:round;stroke-linejoin:round;stroke-width:2px"/><path d="M79.21,19.5a17.55,17.55,0,0,0-30.42,0" style="fill:none;stroke:#000;stroke-linecap:round;stroke-linejoin:round;stroke-width:2px"/><path d="M71.94,19.5c-1.59-5.25-4.55-8.79-7.94-8.79s-6.35,3.54-7.94,8.79" style="fill:none;stroke:#000;stroke-linecap:round;stroke-linejoin:round;stroke-width:2px"/><polygon points="79.53 23.95 81.06 27.06 84.49 27.56 82.01 29.98 82.6 33.4 79.53 31.78 76.46 33.4 77.05 29.98 74.56 27.56 77.99 27.06 79.53 23.95" style="fill:none;stroke:#000;stroke-linecap:round;stroke-linejoin:round;stroke-width:2px"/><polygon points="64.16 33.3 65.69 36.41 69.12 36.91 66.64 39.33 67.23 42.74 64.16 41.13 61.09 42.74 61.68 39.33 59.19 36.91 62.62 36.41 64.16 33.3" style="fill:none;stroke:#000;stroke-linecap:round;stroke-linejoin:round;stroke-width:2px"/><circle cx="79.53" cy="40.94" r="1.71" style="fill:none;stroke:#000;stroke-linecap:round;stroke-linejoin:round;stroke-width:2px"/><circle cx="64.16" cy="50.55" r="1.71" style="fill:none;stroke:#000;stroke-linecap:round;stroke-linejoin:round;stroke-width:2px"/><circle cx="64.16" cy="24.73" r="1.71" style="fill:none;stroke:#000;stroke-linecap:round;stroke-linejoin:round;stroke-width:2px"/><circle cx="48.47" cy="44.67" r="1.71" style="fill:none;stroke:#000;stroke-linecap:round;stroke-linejoin:round;stroke-width:2px"/><line style="fill:none;stroke:#000;stroke-linecap:round;stroke-linejoin:round;stroke-width:2px" x1="48.47" x2="48.47" y1="23.87" y2="23.87"/><line style="fill:none;stroke:#000;stroke-linecap:round;stroke-linejoin:round;stroke-width:2px" x1="64.16" x2="64.16" y1="19.66" y2="19.66"/><line style="fill:none;stroke:#000;stroke-linecap:round;stroke-linejoin:round;stroke-width:2px" x1="64.16" x2="64.16" y1="29.81" y2="29.81"/><line style="fill:none;stroke:#000;stroke-linecap:round;stroke-linejoin:round;stroke-width:2px" x1="64.16" x2="64.16" y1="45.4" y2="45.4"/><line style="fill:none;stroke:#000;stroke-linecap:round;stroke-linejoin:round;stroke-width:2px" x1="79.53" x2="79.53" y1="35.8" y2="35.8"/><line style="fill:none;stroke:#000;stroke-linecap:round;stroke-linejoin:round;stroke-width:2px" x1="48.47" x2="48.47" y1="39.49" y2="39.49"/><line style="fill:none;stroke:#000;stroke-linecap:round;stroke-linejoin:round;stroke-width:2px" x1="64" x2="64" y1="10.71" y2="4.53"/></svg>