<?xml version="1.0" ?><svg data-name="Layer 1" id="Layer_1" viewBox="0 0 128 128" xmlns="http://www.w3.org/2000/svg"><title/><line style="fill:none;stroke:#000;stroke-linecap:round;stroke-linejoin:round;stroke-width:2px" x1="3.39" x2="124.61" y1="122.18" y2="122.18"/><polyline points="16.31 122.18 16.31 13.48 71.61 13.48 71.61 122.18" style="fill:none;stroke:#000;stroke-linecap:round;stroke-linejoin:round;stroke-width:2px"/><polyline points="57.17 65.74 65.65 65.74 65.65 68.75" style="fill:none;stroke:#000;stroke-linecap:round;stroke-linejoin:round;stroke-width:2px"/><path d="M61.94,60.1V29H61a17.9,17.9,0,0,1-10.66-3.77,10.59,10.59,0,0,0-12.66,0A17.9,17.9,0,0,1,27,29H26V80.68h1a15.84,15.84,0,0,1,2.48.19,18.66,18.66,0,0,1,8.18,3.58,10.59,10.59,0,0,0,12.66,0A17.9,17.9,0,0,1,61,80.68h1V71.55" style="fill:none;stroke:#000;stroke-linecap:round;stroke-linejoin:round;stroke-width:2px"/><path d="M44,96.22a10.51,10.51,0,0,1-6.33-2.1,19.41,19.41,0,0,0-6.4-3.19A16,16,0,0,0,27,90.35H26v16.09h36V90.35H61a17.9,17.9,0,0,0-10.66,3.77A10.51,10.51,0,0,1,44,96.22Z" style="fill:none;stroke:#000;stroke-linecap:round;stroke-linejoin:round;stroke-width:2px"/><polyline points="9.26 122.18 9.26 5.82 78.66 5.82 78.66 122.18" style="fill:none;stroke:#000;stroke-linecap:round;stroke-linejoin:round;stroke-width:2px"/><circle cx="43.96" cy="42.84" r="1.6" style="fill:none;stroke:#000;stroke-linecap:round;stroke-linejoin:round;stroke-width:2px"/><line style="fill:none;stroke:#000;stroke-linecap:round;stroke-linejoin:round;stroke-width:2px" x1="104.94" x2="91.72" y1="93.01" y2="93.01"/><line style="fill:none;stroke:#000;stroke-linecap:round;stroke-linejoin:round;stroke-width:2px" x1="117.69" x2="111.74" y1="93.01" y2="93.01"/><path d="M110.71,122.18a4.53,4.53,0,0,0,4.52-4.23L116.89,93h.8a2.22,2.22,0,1,0,0-4.43h-26a2.22,2.22,0,1,0,0,4.43h.8L94.18,118a4.52,4.52,0,0,0,4.52,4.23" style="fill:none;stroke:#000;stroke-linecap:round;stroke-linejoin:round;stroke-width:2px"/><path d="M99.34,88.58S94.15,80,94.9,71.29A59.54,59.54,0,0,0,94.15,58s12.45,16.56,8.07,30.57" style="fill:none;stroke:#000;stroke-linecap:round;stroke-linejoin:round;stroke-width:2px"/><path d="M109.36,88.58s3.51-4.45,1.6-24.73c-.53-5.58,1.06-13.56,1.06-13.56s-7.32,4-8.28,11.37" style="fill:none;stroke:#000;stroke-linecap:round;stroke-linejoin:round;stroke-width:2px"/><path d="M113.93,88.58a7.24,7.24,0,0,0,5.59-5c.81-2.44.94-5.67,2.07-11.81-1.58,1.06-4.81,2.51-6.19,8.68" style="fill:none;stroke:#000;stroke-linecap:round;stroke-linejoin:round;stroke-width:2px"/><path d="M115.4,80.5S119,66.81,115.1,58c-.87,6.05-3,6.77-3.85,9.42" style="fill:none;stroke:#000;stroke-linecap:round;stroke-linejoin:round;stroke-width:2px"/><path d="M94.65,88.58s-6.12-2-6.82-11.8c-.56-7.75-3.51-10-3.51-10s8.36,2.44,10.58,8.68" style="fill:none;stroke:#000;stroke-linecap:round;stroke-linejoin:round;stroke-width:2px"/><line style="fill:none;stroke:#000;stroke-linecap:round;stroke-linejoin:round;stroke-width:2px" x1="99.62" x2="104.11" y1="117.44" y2="117.44"/><path d="M107.19,81.52a29.72,29.72,0,0,0-1.34-11.61c-3-9.07-4.58-24.4-4.58-24.4a59.21,59.21,0,0,0-3.86,17.66" style="fill:none;stroke:#000;stroke-linecap:round;stroke-linejoin:round;stroke-width:2px"/></svg>