<?xml version="1.0" ?><svg data-name="Layer 1" id="Layer_1" viewBox="0 0 128 128" xmlns="http://www.w3.org/2000/svg"><title/><path d="M39.17,6.6a3.49,3.49,0,1,1,3.48,3.49v4.7" style="fill:none;stroke:#000;stroke-linecap:round;stroke-linejoin:round;stroke-width:2px"/><line style="fill:none;stroke:#000;stroke-linecap:round;stroke-linejoin:round;stroke-width:2px" x1="7.94" x2="120.06" y1="6.77" y2="6.77"/><line style="fill:none;stroke:#000;stroke-linecap:round;stroke-linejoin:round;stroke-width:2px" x1="14.58" x2="14.58" y1="6.77" y2="106.81"/><line style="fill:none;stroke:#000;stroke-linecap:round;stroke-linejoin:round;stroke-width:2px" x1="113.42" x2="113.42" y1="6.77" y2="106.81"/><path d="M7.77,118v-4a7.12,7.12,0,0,1,7.12-7.12h98.22a7.12,7.12,0,0,1,7.12,7.12v4" style="fill:none;stroke:#000;stroke-linecap:round;stroke-linejoin:round;stroke-width:2px"/><circle cx="7.74" cy="121.43" r="3.45" style="fill:none;stroke:#000;stroke-linecap:round;stroke-linejoin:round;stroke-width:2px"/><circle cx="120.26" cy="121.43" r="3.45" style="fill:none;stroke:#000;stroke-linecap:round;stroke-linejoin:round;stroke-width:2px"/><polyline points="49.56 64.24 29.18 64.24 29.18 31.29" style="fill:none;stroke:#000;stroke-linecap:round;stroke-linejoin:round;stroke-width:2px"/><path d="M29.18,38.55l-9.56-1.06,2.61-12.81a10.72,10.72,0,0,1,7.2-8.33l4.71-1.56" style="fill:none;stroke:#000;stroke-linecap:round;stroke-linejoin:round;stroke-width:2px"/><path d="M51.15,14.79a8.51,8.51,0,1,1-17,0" style="fill:none;stroke:#000;stroke-linecap:round;stroke-linejoin:round;stroke-width:2px"/><path d="M51.15,14.79l4.71,1.56a10.69,10.69,0,0,1,5.9,4.79l.09.13" style="fill:none;stroke:#000;stroke-linecap:round;stroke-linejoin:round;stroke-width:2px"/><line style="fill:none;stroke:#000;stroke-linecap:round;stroke-linejoin:round;stroke-width:2px" x1="51.14" x2="34.14" y1="14.79" y2="14.79"/><path d="M73.89,6.6a3.48,3.48,0,1,1,3.48,3.49v4.7" style="fill:none;stroke:#000;stroke-linecap:round;stroke-linejoin:round;stroke-width:2px"/><line style="fill:none;stroke:#000;stroke-linecap:round;stroke-linejoin:round;stroke-width:2px" x1="91.97" x2="62.78" y1="53.78" y2="53.78"/><line style="fill:none;stroke:#000;stroke-linecap:round;stroke-linejoin:round;stroke-width:2px" x1="92.15" x2="62.6" y1="57.25" y2="57.25"/><polyline points="77.9 26.56 85.11 12.71 91.55 20.26 86.4 21.52" style="fill:none;stroke:#000;stroke-linecap:round;stroke-linejoin:round;stroke-width:2px"/><polyline points="85.29 98.25 84.94 41.14 71.2 12.71 64.77 20.26 69.92 21.52" style="fill:none;stroke:#000;stroke-linecap:round;stroke-linejoin:round;stroke-width:2px"/><polyline points="75.33 21.25 66.04 27.89 84.94 41.14" style="fill:none;stroke:#000;stroke-linecap:round;stroke-linejoin:round;stroke-width:2px"/><path d="M85.29,98.25l-31-2.34s7.73-33.67,8.06-37a51.88,51.88,0,0,0-.11-14.11C60.92,37.76,58.9,22.3,58.9,22.3" style="fill:none;stroke:#000;stroke-linecap:round;stroke-linejoin:round;stroke-width:2px"/><path d="M61.81,42.66l-7,34.92h-6.6c3.65-43,10.64-55.28,10.64-55.28l5.91-2" style="fill:none;stroke:#000;stroke-linecap:round;stroke-linejoin:round;stroke-width:2px"/><line style="fill:none;stroke:#000;stroke-linecap:round;stroke-linejoin:round;stroke-width:2px" x1="81.72" x2="80.54" y1="43.24" y2="43.24"/><line style="fill:none;stroke:#000;stroke-linecap:round;stroke-linejoin:round;stroke-width:2px" x1="81.72" x2="80.54" y1="63.71" y2="63.71"/><line style="fill:none;stroke:#000;stroke-linecap:round;stroke-linejoin:round;stroke-width:2px" x1="81.72" x2="80.54" y1="76.54" y2="76.54"/><line style="fill:none;stroke:#000;stroke-linecap:round;stroke-linejoin:round;stroke-width:2px" x1="74.24" x2="73.06" y1="43.24" y2="43.24"/><line style="fill:none;stroke:#000;stroke-linecap:round;stroke-linejoin:round;stroke-width:2px" x1="74.24" x2="73.06" y1="63.71" y2="63.71"/><line style="fill:none;stroke:#000;stroke-linecap:round;stroke-linejoin:round;stroke-width:2px" x1="74.24" x2="73.06" y1="76.54" y2="76.54"/><polyline points="80.89 21.25 90.19 27.89 81.61 33.9" style="fill:none;stroke:#000;stroke-linecap:round;stroke-linejoin:round;stroke-width:2px"/><path d="M85.29,97.05l15.13-1.14s-7.72-33.67-8.06-37c-.48-4.7-.68-10,.11-14.11,1.35-7.06,3.38-22.52,3.38-22.52" style="fill:none;stroke:#000;stroke-linecap:round;stroke-linejoin:round;stroke-width:2px"/><path d="M92.94,42.66l7,34.92h6.61c-3.66-43-10.64-55.28-10.64-55.28l-4.34-2" style="fill:none;stroke:#000;stroke-linecap:round;stroke-linejoin:round;stroke-width:2px"/><line style="fill:none;stroke:#000;stroke-linecap:round;stroke-linejoin:round;stroke-width:2px" x1="71.2" x2="85.11" y1="12.71" y2="12.71"/></svg>