<?xml version="1.0" ?><svg data-name="Layer 1" id="Layer_1" viewBox="0 0 128 128" xmlns="http://www.w3.org/2000/svg"><title/><polyline points="18.68 3.75 18.68 17.51 3.42 29.39 3.42 35.45 53.92 35.45 53.92 29.39 38.66 17.51 38.66 3.75" style="fill:none;stroke:#000;stroke-linecap:round;stroke-linejoin:round;stroke-width:2px"/><line style="fill:none;stroke:#000;stroke-linecap:round;stroke-linejoin:round;stroke-width:2px" x1="43.15" x2="53.92" y1="29.56" y2="29.56"/><line style="fill:none;stroke:#000;stroke-linecap:round;stroke-linejoin:round;stroke-width:2px" x1="3.42" x2="38.11" y1="29.56" y2="29.56"/><line style="fill:none;stroke:#000;stroke-linecap:round;stroke-linejoin:round;stroke-width:2px" x1="7.78" x2="7.66" y1="32.63" y2="32.63"/><line style="fill:none;stroke:#000;stroke-linecap:round;stroke-linejoin:round;stroke-width:2px" x1="11.77" x2="11.65" y1="32.63" y2="32.63"/><rect height="65.61" style="fill:none;stroke:#000;stroke-linecap:round;stroke-linejoin:round;stroke-width:2px" width="49.96" x="3.69" y="54.3"/><line style="fill:none;stroke:#000;stroke-linecap:round;stroke-linejoin:round;stroke-width:2px" x1="3.69" x2="53.65" y1="68.17" y2="68.17"/><line style="fill:none;stroke:#000;stroke-linecap:round;stroke-linejoin:round;stroke-width:2px" x1="3.69" x2="53.65" y1="107.17" y2="107.17"/><line style="fill:none;stroke:#000;stroke-linecap:round;stroke-linejoin:round;stroke-width:2px" x1="11.07" x2="46.27" y1="73.55" y2="73.55"/><circle cx="12.3" cy="61.1" r="1.82" style="fill:none;stroke:#000;stroke-linecap:round;stroke-linejoin:round;stroke-width:2px"/><circle cx="23.21" cy="61.1" r="1.82" style="fill:none;stroke:#000;stroke-linecap:round;stroke-linejoin:round;stroke-width:2px"/><circle cx="34.13" cy="61.1" r="1.82" style="fill:none;stroke:#000;stroke-linecap:round;stroke-linejoin:round;stroke-width:2px"/><circle cx="45.05" cy="61.1" r="1.82" style="fill:none;stroke:#000;stroke-linecap:round;stroke-linejoin:round;stroke-width:2px"/><polyline points="3.69 101.04 20.48 101.04 20.48 103.02 36.86 103.02 36.86 101.04 53.65 101.04" style="fill:none;stroke:#000;stroke-linecap:round;stroke-linejoin:round;stroke-width:2px"/><line style="fill:none;stroke:#000;stroke-linecap:round;stroke-linejoin:round;stroke-width:2px" x1="48.34" x2="45.17" y1="123.27" y2="123.27"/><line style="fill:none;stroke:#000;stroke-linecap:round;stroke-linejoin:round;stroke-width:2px" x1="12.17" x2="9" y1="123.27" y2="123.27"/><rect height="104.94" style="fill:none;stroke:#000;stroke-linecap:round;stroke-linejoin:round;stroke-width:2px" width="64.4" x="59.91" y="18.27"/><line style="fill:none;stroke:#000;stroke-linecap:round;stroke-linejoin:round;stroke-width:2px" x1="88.72" x2="88.72" y1="119.09" y2="18.23"/><line style="fill:none;stroke:#000;stroke-linecap:round;stroke-linejoin:round;stroke-width:2px" x1="59.91" x2="124.31" y1="119.09" y2="119.09"/><rect height="17.68" style="fill:none;stroke:#000;stroke-linecap:round;stroke-linejoin:round;stroke-width:2px" width="17.78" x="65.18" y="56.88"/><polyline points="72.26 62.18 72.26 67.06 68.7 67.06 68.7 62.18" style="fill:none;stroke:#000;stroke-linecap:round;stroke-linejoin:round;stroke-width:2px"/><polyline points="79.45 62.18 79.45 67.06 75.89 67.06 75.89 62.18" style="fill:none;stroke:#000;stroke-linecap:round;stroke-linejoin:round;stroke-width:2px"/><line style="fill:none;stroke:#000;stroke-linecap:round;stroke-linejoin:round;stroke-width:2px" x1="82.96" x2="65.18" y1="62.18" y2="62.18"/><polyline points="95.78 108.1 95.78 32.44 92.78 30.44" style="fill:none;stroke:#000;stroke-linecap:round;stroke-linejoin:round;stroke-width:2px"/></svg>