<?xml version="1.0" ?><svg data-name="Layer 1" id="Layer_1" viewBox="0 0 128 128" xmlns="http://www.w3.org/2000/svg"><title/><rect height="103.41" style="fill:none;stroke:#000;stroke-linecap:round;stroke-linejoin:round;stroke-width:2px" width="96.45" x="15.77" y="3.04"/><line style="fill:none;stroke:#000;stroke-linecap:round;stroke-linejoin:round;stroke-width:2px" x1="15.77" x2="112.23" y1="8.45" y2="8.45"/><line style="fill:none;stroke:#000;stroke-linecap:round;stroke-linejoin:round;stroke-width:2px" x1="112.23" x2="15.77" y1="88.78" y2="88.78"/><polyline points="20.95 106.45 18.89 124.96 15.77 124.96 15.77 106.45" style="fill:none;stroke:#000;stroke-linecap:round;stroke-linejoin:round;stroke-width:2px"/><polyline points="112.23 106.45 112.23 124.96 109.11 124.96 107.05 106.45" style="fill:none;stroke:#000;stroke-linecap:round;stroke-linejoin:round;stroke-width:2px"/><polyline points="20.95 106.45 28.71 112.36 60.8 112.36 64.95 116.51" style="fill:none;stroke:#000;stroke-linecap:round;stroke-linejoin:round;stroke-width:2px"/><polyline points="107.05 106.45 101.18 112.36 69.1 112.36 64.95 116.51" style="fill:none;stroke:#000;stroke-linecap:round;stroke-linejoin:round;stroke-width:2px"/><line style="fill:none;stroke:#000;stroke-linecap:round;stroke-linejoin:round;stroke-width:2px" x1="64" x2="64" y1="106.45" y2="88.78"/><polyline points="50.61 88.78 50.61 92.82 29.32 92.82 29.32 88.78" style="fill:none;stroke:#000;stroke-linecap:round;stroke-linejoin:round;stroke-width:2px"/><polyline points="98.68 88.78 98.68 92.82 77.39 92.82 77.39 88.78" style="fill:none;stroke:#000;stroke-linecap:round;stroke-linejoin:round;stroke-width:2px"/><rect height="68.91" style="fill:none;stroke:#000;stroke-linecap:round;stroke-linejoin:round;stroke-width:2px" transform="translate(188.14 97.7) rotate(180)" width="25.64" x="81.25" y="14.4"/><rect height="68.91" style="fill:none;stroke:#000;stroke-linecap:round;stroke-linejoin:round;stroke-width:2px" transform="translate(127.92 97.7) rotate(180)" width="25.64" x="51.14" y="14.4"/><rect height="68.91" style="fill:none;stroke:#000;stroke-linecap:round;stroke-linejoin:round;stroke-width:2px" transform="translate(67.86 97.7) rotate(180)" width="25.64" x="21.11" y="14.4"/><polyline points="81.25 43.59 85.21 43.59 85.21 54.11 81.25 54.11" style="fill:none;stroke:#000;stroke-linecap:round;stroke-linejoin:round;stroke-width:2px"/><polyline points="21.11 43.59 25.07 43.59 25.07 54.11 21.11 54.11" style="fill:none;stroke:#000;stroke-linecap:round;stroke-linejoin:round;stroke-width:2px"/><line style="fill:none;stroke:#000;stroke-linecap:round;stroke-linejoin:round;stroke-width:2px" x1="64.95" x2="57.21" y1="24.34" y2="32.08"/><line style="fill:none;stroke:#000;stroke-linecap:round;stroke-linejoin:round;stroke-width:2px" x1="59.46" x2="56.18" y1="23.59" y2="26.87"/><line style="fill:none;stroke:#000;stroke-linecap:round;stroke-linejoin:round;stroke-width:2px" x1="63.9" x2="71.64" y1="72.45" y2="64.71"/><line style="fill:none;stroke:#000;stroke-linecap:round;stroke-linejoin:round;stroke-width:2px" x1="69.39" x2="72.67" y1="73.2" y2="69.92"/></svg>