<?xml version="1.0" ?><svg data-name="Layer 1" id="Layer_1" viewBox="0 0 128 128" xmlns="http://www.w3.org/2000/svg"><title/><line style="fill:none;stroke:#000;stroke-linecap:round;stroke-linejoin:round;stroke-width:2px" x1="119.17" x2="122.14" y1="45.64" y2="42.68"/><path d="M62.92,107.14l-6.46,1.21,1.21-6.46,56.25-56.25a3.71,3.71,0,0,1,5.25,0h0a3.71,3.71,0,0,1,0,5.25Z" style="fill:none;stroke:#000;stroke-linecap:round;stroke-linejoin:round;stroke-width:2px"/><line style="fill:none;stroke:#000;stroke-linecap:round;stroke-linejoin:round;stroke-width:2px" x1="116.05" x2="110.8" y1="54.01" y2="48.76"/><path d="M107.35,52.21l5.25,5.25,1,1a4,4,0,0,1,0,5.62L98.38,79.35A8,8,0,0,0,96,84.62" style="fill:none;stroke:#000;stroke-linecap:round;stroke-linejoin:round;stroke-width:2px"/><line style="fill:none;stroke:#000;stroke-linecap:round;stroke-linejoin:round;stroke-width:2px" x1="65.99" x2="60.74" y1="104.07" y2="98.82"/><rect height="135.55" style="fill:none;stroke:#000;stroke-linecap:round;stroke-linejoin:round;stroke-width:2px" transform="translate(63.46 -25.19) rotate(45)" width="19.59" x="52.34" y="-3.78"/><line style="fill:none;stroke:#000;stroke-linecap:round;stroke-linejoin:round;stroke-width:2px" x1="107.34" x2="102.78" y1="32.66" y2="28.1"/><line style="fill:none;stroke:#000;stroke-linecap:round;stroke-linejoin:round;stroke-width:2px" x1="96.4" x2="91.85" y1="43.59" y2="39.04"/><line style="fill:none;stroke:#000;stroke-linecap:round;stroke-linejoin:round;stroke-width:2px" x1="74.53" x2="69.98" y1="65.46" y2="60.91"/><line style="fill:none;stroke:#000;stroke-linecap:round;stroke-linejoin:round;stroke-width:2px" x1="52.67" x2="48.11" y1="87.33" y2="82.78"/><line style="fill:none;stroke:#000;stroke-linecap:round;stroke-linejoin:round;stroke-width:2px" x1="85.47" x2="80.91" y1="54.53" y2="49.97"/><line style="fill:none;stroke:#000;stroke-linecap:round;stroke-linejoin:round;stroke-width:2px" x1="63.6" x2="59.05" y1="76.39" y2="71.84"/><line style="fill:none;stroke:#000;stroke-linecap:round;stroke-linejoin:round;stroke-width:2px" x1="41.73" x2="37.18" y1="98.26" y2="93.71"/><line style="fill:none;stroke:#000;stroke-linecap:round;stroke-linejoin:round;stroke-width:2px" x1="30.8" x2="26.24" y1="109.2" y2="104.64"/><path d="M104.3,92.7l-8.38,8.38a2.14,2.14,0,0,0,0,3h0a2.12,2.12,0,0,0,3,0l10.38-10.37a4.21,4.21,0,0,0,0-6h0a4.21,4.21,0,0,0-5.95,0L91.9,99.24a6.23,6.23,0,0,0,0,8.79h0a6.22,6.22,0,0,0,8.8,0l10.55-10.54" style="fill:none;stroke:#000;stroke-linecap:round;stroke-linejoin:round;stroke-width:2px"/><path d="M7.3,80.69h0a4.89,4.89,0,0,1,0-6.92L64.93,16.14,75.5,12.49,71.85,23.06,14.22,80.69A4.89,4.89,0,0,1,7.3,80.69Z" style="fill:none;stroke:#000;stroke-linecap:round;stroke-linejoin:round;stroke-width:2px"/><line style="fill:none;stroke:#000;stroke-linecap:round;stroke-linejoin:round;stroke-width:2px" x1="68.39" x2="17.23" y1="19.6" y2="70.76"/><line style="fill:none;stroke:#000;stroke-linecap:round;stroke-linejoin:round;stroke-width:2px" x1="20.69" x2="13.77" y1="74.22" y2="67.3"/><line style="fill:none;stroke:#000;stroke-linecap:round;stroke-linejoin:round;stroke-width:2px" x1="16.84" x2="9.92" y1="78.07" y2="71.15"/><line style="fill:none;stroke:#000;stroke-linecap:round;stroke-linejoin:round;stroke-width:2px" x1="71.85" x2="64.93" y1="23.06" y2="16.14"/></svg>