<?xml version="1.0" ?><svg data-name="Layer 1" id="Layer_1" viewBox="0 0 128 128" xmlns="http://www.w3.org/2000/svg"><title/><line style="fill:none;stroke:#000;stroke-linecap:round;stroke-linejoin:round;stroke-width:2px" x1="83.22" x2="88.87" y1="69.91" y2="69.91"/><line style="fill:none;stroke:#000;stroke-linecap:round;stroke-linejoin:round;stroke-width:2px" x1="39.13" x2="44.78" y1="69.91" y2="69.91"/><ellipse cx="64" cy="30.21" rx="20.43" ry="26.69" style="fill:none;stroke:#000;stroke-linecap:round;stroke-linejoin:round;stroke-width:2px"/><line style="fill:none;stroke:#000;stroke-linecap:round;stroke-linejoin:round;stroke-width:2px" x1="17.61" x2="110.39" y1="64.59" y2="64.59"/><line style="fill:none;stroke:#000;stroke-linecap:round;stroke-linejoin:round;stroke-width:2px" x1="64" x2="64" y1="75.23" y2="65.22"/><path d="M98,77.48a8.46,8.46,0,0,1,4.1,7.38c0,8.25-5,7.43-3.92,25.65l1.09,14h2.39v-14c0-15.64,5.21-18.35,5.21-26.6a14.82,14.82,0,0,0-2.51-8.29" style="fill:none;stroke:#000;stroke-linecap:round;stroke-linejoin:round;stroke-width:2px"/><path d="M30,77.48a8.46,8.46,0,0,0-4.1,7.38c0,8.25,5,7.43,3.92,25.65l-1.09,14H26.34v-14c0-15.64-5.21-18.35-5.21-26.6a14.82,14.82,0,0,1,2.51-8.29" style="fill:none;stroke:#000;stroke-linecap:round;stroke-linejoin:round;stroke-width:2px"/><polyline points="106.43 64.59 106.43 75.23 21.57 75.23 21.57 64.59" style="fill:none;stroke:#000;stroke-linecap:round;stroke-linejoin:round;stroke-width:2px"/><path d="M103.06,75.61l1.46-.08A8.76,8.76,0,0,0,103.06,75.61Z" style="fill:none;stroke:#000;stroke-linecap:round;stroke-linejoin:round;stroke-width:2px"/><path d="M24.94,75.61c5.77.7,10.21,6.2,10.21,6.2a10.31,10.31,0,0,1,8.1-2.09c6.07,1.06,6.74,3.37,11.37,3.37a5.53,5.53,0,0,0,4.69-2.63,5.5,5.5,0,0,0,9.38,0,5.53,5.53,0,0,0,4.69,2.63c4.63,0,5.3-2.31,11.37-3.37a10.31,10.31,0,0,1,8.1,2.09s4.44-5.5,10.21-6.2" style="fill:none;stroke:#000;stroke-linecap:round;stroke-linejoin:round;stroke-width:2px"/><path d="M24.94,75.61a8.76,8.76,0,0,0-1.46-.08Z" style="fill:none;stroke:#000;stroke-linecap:round;stroke-linejoin:round;stroke-width:2px"/><line style="fill:none;stroke:#000;stroke-linecap:round;stroke-linejoin:round;stroke-width:2px" x1="69.87" x2="64.17" y1="12.47" y2="17.13"/><line style="fill:none;stroke:#000;stroke-linecap:round;stroke-linejoin:round;stroke-width:2px" x1="69.7" x2="66.4" y1="17.82" y2="20.52"/><line style="fill:none;stroke:#000;stroke-linecap:round;stroke-linejoin:round;stroke-width:2px" x1="68.78" x2="58.61" y1="36.3" y2="44.46"/><line style="fill:none;stroke:#000;stroke-linecap:round;stroke-linejoin:round;stroke-width:2px" x1="67.37" x2="64.07" y1="42.56" y2="45.26"/><line style="fill:none;stroke:#000;stroke-linecap:round;stroke-linejoin:round;stroke-width:2px" x1="38.79" x2="38.79" y1="27.23" y2="64.44"/><line style="fill:none;stroke:#000;stroke-linecap:round;stroke-linejoin:round;stroke-width:2px" x1="43.56" x2="38.79" y1="30.21" y2="30.21"/><line style="fill:none;stroke:#000;stroke-linecap:round;stroke-linejoin:round;stroke-width:2px" x1="89.21" x2="89.21" y1="27.23" y2="64.44"/><line style="fill:none;stroke:#000;stroke-linecap:round;stroke-linejoin:round;stroke-width:2px" x1="84.44" x2="89.21" y1="30.21" y2="30.21"/></svg>