<?xml version="1.0" ?><svg data-name="Layer 1" id="Layer_1" viewBox="0 0 128 128" xmlns="http://www.w3.org/2000/svg"><title/><polyline points="19.89 81.77 19.02 123.82 14.7 123.82 13.84 81.77" style="fill:none;stroke:#000;stroke-linecap:round;stroke-linejoin:round;stroke-width:2px"/><polyline points="114.16 81.77 113.3 123.82 108.98 123.82 108.11 81.77" style="fill:none;stroke:#000;stroke-linecap:round;stroke-linejoin:round;stroke-width:2px"/><polyline points="98.51 76.88 4.49 76.88 4.49 68.67 123.51 68.67 123.51 76.88 105.64 76.88" style="fill:none;stroke:#000;stroke-linecap:round;stroke-linejoin:round;stroke-width:2px"/><polyline points="9.16 76.88 9.16 81.77 118.84 81.77 118.84 76.88" style="fill:none;stroke:#000;stroke-linecap:round;stroke-linejoin:round;stroke-width:2px"/><line style="fill:none;stroke:#000;stroke-linecap:round;stroke-linejoin:round;stroke-width:2px" x1="84.84" x2="84.84" y1="4.18" y2="29.71"/><path d="M88.69,34.12l-1.47-4.41H82.47L81,34.12A15.31,15.31,0,0,0,69.6,47.45h30.48A15.29,15.29,0,0,0,88.69,34.12Z" style="fill:none;stroke:#000;stroke-linecap:round;stroke-linejoin:round;stroke-width:2px"/><line style="fill:none;stroke:#000;stroke-linecap:round;stroke-linejoin:round;stroke-width:2px" x1="75.67" x2="79.73" y1="43.13" y2="43.13"/><line style="fill:none;stroke:#000;stroke-linecap:round;stroke-linejoin:round;stroke-width:2px" x1="83.29" x2="84.14" y1="43.13" y2="43.13"/><line style="fill:none;stroke:#000;stroke-linecap:round;stroke-linejoin:round;stroke-width:2px" x1="43.16" x2="43.16" y1="4.18" y2="29.71"/><path d="M47,34.12l-1.47-4.41H40.78l-1.47,4.41A15.29,15.29,0,0,0,27.92,47.45H58.4A15.31,15.31,0,0,0,47,34.12Z" style="fill:none;stroke:#000;stroke-linecap:round;stroke-linejoin:round;stroke-width:2px"/><rect height="7.64" style="fill:none;stroke:#000;stroke-linecap:round;stroke-linejoin:round;stroke-width:2px" width="75.29" x="26.36" y="91.12"/><line style="fill:none;stroke:#000;stroke-linecap:round;stroke-linejoin:round;stroke-width:2px" x1="26.36" x2="26.36" y1="98.76" y2="120.59"/><line style="fill:none;stroke:#000;stroke-linecap:round;stroke-linejoin:round;stroke-width:2px" x1="101.64" x2="101.64" y1="98.76" y2="120.59"/><line style="fill:none;stroke:#000;stroke-linecap:round;stroke-linejoin:round;stroke-width:2px" x1="26.36" x2="101.64" y1="103.07" y2="112.88"/><line style="fill:none;stroke:#000;stroke-linecap:round;stroke-linejoin:round;stroke-width:2px" x1="101.64" x2="26.36" y1="103.07" y2="112.88"/></svg>